<svg width="14" height="24" viewBox="0 0 14 24" fill="none" xmlns="http://www.w3.org/2000/svg">
<path d="M5.9522 2.37318C7.18875 4.8055 3.38283 6.45753 1.63677 4.63305C0.909211 3.85577 1.24385 2.35369 3.00863 1.53742C3.89181 1.11954 5.12836 0.739647 5.9522 2.37318Z" fill="black"/>
<path d="M13.7363 1.30299C15.0816 3.95074 10.9364 5.74973 9.03628 3.76329C8.24419 2.91603 8.60797 1.28249 10.5315 0.393244C11.4922 -0.0621267 12.838 -0.47451 13.7363 1.30299Z" fill="black"/>
<path fill-rule="evenodd" clip-rule="evenodd" d="M5.77582 23.9371C8.59136 24.2465 11.5219 23.4032 12.6539 21.6617C13.6109 20.2006 12.8277 19.6948 11.7249 20.8744C9.40376 23.4317 6.99519 22.2795 5.97983 19.6948L6.24109 19.6108C11.1446 17.7283 14.2204 12.6158 12.2765 9.7221C9.6062 5.73273 1.24962 9.30022 0.204593 14.8911C-0.753002 20.0602 1.74247 23.5157 5.77582 23.9371ZM8.79426 10.0035C9.6358 11.2957 8.62044 15.8749 5.57331 17.9538C5.4864 17.307 5.4864 16.6052 5.54416 15.8749C6.15359 10.7618 7.89496 8.65541 8.79426 10.0035Z" fill="black"/>
</svg>
